# xmcd
#
# Track frame offsets:
#	150
#	11660
#	27712
#	45915
#	67365
#	84177
#	100190
#	121900
#	139275
#	158910
#	172725
#	189012
#
# Disc length: 2729 seconds
#
# Revision: 1
# Processed by: cddbd v1.5.2PL0 Copyright (c) Steve Scherf et al.
# Submitted via: audiograbber 1.83.01
#
DISCID=930aa70c
DTITLE=Willie Nelson - Collection
DYEAR=1988
DGENRE=Country
TTITLE0=On the road again
TTITLE1=To all the girls I've loved before
TTITLE2=A whiter shade of pale
TTITLE3=They all went to Mexico
TTITLE4=Golden earrings
TTITLE5=Always on my mind
TTITLE6=City of New Orleans
TTITLE7=Seven Spanish Angels
TTITLE8=Georgia on my mind
TTITLE9=Highway Man
TTITLE10=Over the rainbow
TTITLE11=Let it be me
EXTD=
EXTT0=
EXTT1=
EXTT2=
EXTT3=
EXTT4=
EXTT5=
EXTT6=
EXTT7=
EXTT8=
EXTT9=
EXTT10=
EXTT11=
PLAYORDER=
